<svg width="247" height="211" viewBox="0 0 247 211" fill="none" xmlns="http://www.w3.org/2000/svg">
<path d="M89.8233 174.095C48.6201 162.409 29.0412 122.239 46.0918 84.3779C57.1191 59.8882 80.7726 42.3677 107.255 36.2044C74.5832 38.8263 43.5485 58.4873 30.2809 87.9502C12.7414 126.893 32.881 168.209 75.2604 180.229C99.2742 187.039 125.271 182.982 146.488 171.108C128.633 177.912 108.605 179.423 89.8233 174.095Z" fill="white"/>
<path d="M51.7392 85.9784C35.9778 120.977 54.0758 158.106 92.1624 168.911C101.737 171.626 111.666 172.42 121.413 171.528C114.206 171.583 106.969 170.666 99.9283 168.666C63.1414 158.234 45.6645 122.375 60.8845 88.5737C76.1044 54.7723 118.266 35.8311 155.051 46.2662C162.093 48.2632 168.421 51.1939 173.953 54.8614C167.125 49.2708 158.815 44.8895 149.237 42.1727C111.151 31.3673 67.5006 50.9799 51.7392 85.9784Z" fill="white"/>
<path d="M142.392 114.168C141.304 114.168 140.344 113.968 139.512 113.568C138.68 113.152 138.032 112.528 137.568 111.696C137.104 110.848 136.872 109.784 136.872 108.504V101.184H139.872V108.096C139.872 109.248 140.128 110.112 140.64 110.688C141.168 111.248 141.912 111.528 142.872 111.528C143.576 111.528 144.184 111.384 144.696 111.096C145.224 110.808 145.632 110.376 145.92 109.8C146.224 109.224 146.376 108.512 146.376 107.664V101.184H149.376V114H146.52V110.544L147.024 111.6C146.592 112.432 145.96 113.072 145.128 113.52C144.296 113.952 143.384 114.168 142.392 114.168ZM176.68 101.04C177.704 101.04 178.608 101.24 179.392 101.64C180.192 102.04 180.816 102.656 181.264 103.488C181.712 104.304 181.936 105.36 181.936 106.656V114H178.936V107.04C178.936 105.904 178.688 105.056 178.192 104.496C177.696 103.936 176.984 103.656 176.056 103.656C175.4 103.656 174.816 103.8 174.304 104.088C173.808 104.376 173.416 104.8 173.128 105.36C172.856 105.92 172.72 106.632 172.72 107.496V114H169.72V107.04C169.72 105.904 169.472 105.056 168.976 104.496C168.48 103.936 167.768 103.656 166.84 103.656C166.184 103.656 165.6 103.8 165.088 104.088C164.592 104.376 164.2 104.8 163.912 105.36C163.64 105.92 163.504 106.632 163.504 107.496V114H160.504V101.184H163.36V104.592L162.856 103.584C163.288 102.752 163.912 102.12 164.728 101.688C165.56 101.256 166.504 101.04 167.56 101.04C168.76 101.04 169.8 101.336 170.68 101.928C171.576 102.52 172.168 103.416 172.456 104.616L171.28 104.208C171.696 103.248 172.384 102.48 173.344 101.904C174.304 101.328 175.416 101.04 176.68 101.04ZM200.074 114.168C198.986 114.168 198.018 113.928 197.17 113.448C196.322 112.968 195.65 112.248 195.154 111.288C194.674 110.312 194.434 109.08 194.434 107.592C194.434 106.088 194.682 104.856 195.178 103.896C195.69 102.936 196.37 102.224 197.218 101.76C198.082 101.28 199.034 101.04 200.074 101.04C201.338 101.04 202.45 101.312 203.41 101.856C204.386 102.4 205.154 103.16 205.714 104.136C206.29 105.112 206.578 106.264 206.578 107.592C206.578 108.92 206.29 110.072 205.714 111.048C205.154 112.024 204.386 112.792 203.41 113.352C202.45 113.896 201.338 114.168 200.074 114.168ZM192.97 114V96.192H195.97V104.16L195.73 107.568L195.826 110.976V114H192.97ZM199.738 111.6C200.458 111.6 201.098 111.44 201.658 111.12C202.234 110.8 202.69 110.336 203.026 109.728C203.362 109.12 203.53 108.408 203.53 107.592C203.53 106.76 203.362 106.048 203.026 105.456C202.69 104.848 202.234 104.384 201.658 104.064C201.098 103.744 200.458 103.584 199.738 103.584C199.018 103.584 198.37 103.744 197.794 104.064C197.218 104.384 196.762 104.848 196.426 105.456C196.09 106.048 195.922 106.76 195.922 107.592C195.922 108.408 196.09 109.12 196.426 109.728C196.762 110.336 197.218 110.8 197.794 111.12C198.37 111.44 199.018 111.6 199.738 111.6ZM222.647 114.168C221.223 114.168 219.975 113.888 218.903 113.328C217.847 112.752 217.023 111.968 216.431 110.976C215.855 109.984 215.567 108.856 215.567 107.592C215.567 106.312 215.847 105.184 216.407 104.208C216.983 103.216 217.767 102.44 218.759 101.88C219.767 101.32 220.911 101.04 222.191 101.04C223.439 101.04 224.551 101.312 225.527 101.856C226.503 102.4 227.271 103.168 227.831 104.16C228.391 105.152 228.671 106.32 228.671 107.664C228.671 107.792 228.663 107.936 228.647 108.096C228.647 108.256 228.639 108.408 228.623 108.552H217.943V106.56H227.039L225.863 107.184C225.879 106.448 225.727 105.8 225.407 105.24C225.087 104.68 224.647 104.24 224.087 103.92C223.543 103.6 222.911 103.44 222.191 103.44C221.455 103.44 220.807 103.6 220.247 103.92C219.703 104.24 219.271 104.688 218.951 105.264C218.647 105.824 218.495 106.488 218.495 107.256V107.736C218.495 108.504 218.671 109.184 219.023 109.776C219.375 110.368 219.871 110.824 220.511 111.144C221.151 111.464 221.887 111.624 222.719 111.624C223.439 111.624 224.087 111.512 224.663 111.288C225.239 111.064 225.751 110.712 226.199 110.232L227.807 112.08C227.231 112.752 226.503 113.272 225.623 113.64C224.759 113.992 223.767 114.168 222.647 114.168ZM238.752 114V101.184H241.608V104.712L241.272 103.68C241.656 102.816 242.256 102.16 243.072 101.712C243.904 101.264 244.936 101.04 246.168 101.04V103.896C246.04 103.864 245.92 103.848 245.808 103.848C245.696 103.832 245.584 103.824 245.472 103.824C244.336 103.824 243.432 104.16 242.76 104.832C242.088 105.488 241.752 106.472 241.752 107.784V114H238.752ZM136.692 134V121.4H139.032V132.02H145.62V134H136.692ZM157.081 134.126C156.013 134.126 155.077 133.916 154.273 133.496C153.481 133.064 152.863 132.476 152.419 131.732C151.987 130.988 151.771 130.142 151.771 129.194C151.771 128.234 151.981 127.388 152.401 126.656C152.833 125.912 153.421 125.33 154.165 124.91C154.921 124.49 155.779 124.28 156.739 124.28C157.675 124.28 158.509 124.484 159.241 124.892C159.973 125.3 160.549 125.876 160.97 126.62C161.39 127.364 161.6 128.24 161.6 129.248C161.6 129.344 161.594 129.452 161.581 129.572C161.581 129.692 161.575 129.806 161.563 129.914H153.553V128.42H160.376L159.493 128.888C159.505 128.336 159.391 127.85 159.151 127.43C158.912 127.01 158.582 126.68 158.161 126.44C157.753 126.2 157.28 126.08 156.739 126.08C156.187 126.08 155.701 126.2 155.281 126.44C154.873 126.68 154.549 127.016 154.309 127.448C154.081 127.868 153.967 128.366 153.967 128.942V129.302C153.967 129.878 154.099 130.388 154.363 130.832C154.627 131.276 154.999 131.618 155.479 131.858C155.959 132.098 156.511 132.218 157.136 132.218C157.675 132.218 158.161 132.134 158.594 131.966C159.025 131.798 159.409 131.534 159.746 131.174L160.952 132.56C160.52 133.064 159.974 133.454 159.313 133.73C158.666 133.994 157.921 134.126 157.081 134.126ZM174.819 134V132.056L174.693 131.642V128.24C174.693 127.58 174.495 127.07 174.099 126.71C173.703 126.338 173.103 126.152 172.299 126.152C171.759 126.152 171.225 126.236 170.697 126.404C170.181 126.572 169.743 126.806 169.383 127.106L168.501 125.468C169.017 125.072 169.629 124.778 170.337 124.586C171.057 124.382 171.801 124.28 172.569 124.28C173.961 124.28 175.035 124.616 175.791 125.288C176.559 125.948 176.943 126.974 176.943 128.366V134H174.819ZM171.795 134.126C171.075 134.126 170.445 134.006 169.905 133.766C169.365 133.514 168.945 133.172 168.645 132.74C168.357 132.296 168.213 131.798 168.213 131.246C168.213 130.706 168.339 130.22 168.591 129.788C168.855 129.356 169.281 129.014 169.869 128.762C170.457 128.51 171.237 128.384 172.209 128.384H174.999V129.878H172.371C171.603 129.878 171.087 130.004 170.823 130.256C170.559 130.496 170.427 130.796 170.427 131.156C170.427 131.564 170.589 131.888 170.913 132.128C171.237 132.368 171.687 132.488 172.263 132.488C172.815 132.488 173.307 132.362 173.739 132.11C174.183 131.858 174.501 131.486 174.693 130.994L175.071 132.344C174.855 132.908 174.465 133.346 173.901 133.658C173.349 133.97 172.647 134.126 171.795 134.126ZM187.067 131.858L187.121 129.032L192.143 124.388H194.843L190.577 128.672L189.389 129.662L187.067 131.858ZM185.231 134V120.644H187.481V134H185.231ZM192.485 134L188.975 129.662L190.397 127.862L195.221 134H192.485ZM204.745 134.126C203.941 134.126 203.167 134.024 202.423 133.82C201.691 133.604 201.109 133.346 200.677 133.046L201.541 131.336C201.973 131.612 202.489 131.84 203.089 132.02C203.689 132.2 204.289 132.29 204.889 132.29C205.597 132.29 206.107 132.194 206.419 132.002C206.743 131.81 206.905 131.552 206.905 131.228C206.905 130.964 206.797 130.766 206.581 130.634C206.365 130.49 206.083 130.382 205.735 130.31C205.387 130.238 204.997 130.172 204.565 130.112C204.145 130.052 203.719 129.974 203.287 129.878C202.867 129.77 202.483 129.62 202.135 129.428C201.787 129.224 201.505 128.954 201.289 128.618C201.073 128.282 200.965 127.838 200.965 127.286C200.965 126.674 201.139 126.146 201.487 125.702C201.835 125.246 202.321 124.898 202.945 124.658C203.581 124.406 204.331 124.28 205.195 124.28C205.843 124.28 206.497 124.352 207.157 124.496C207.817 124.64 208.363 124.844 208.795 125.108L207.931 126.818C207.475 126.542 207.013 126.356 206.545 126.26C206.089 126.152 205.633 126.098 205.177 126.098C204.493 126.098 203.983 126.2 203.647 126.404C203.323 126.608 203.161 126.866 203.161 127.178C203.161 127.466 203.269 127.682 203.485 127.826C203.701 127.97 203.983 128.084 204.331 128.168C204.679 128.252 205.063 128.324 205.483 128.384C205.915 128.432 206.341 128.51 206.761 128.618C207.181 128.726 207.565 128.876 207.913 129.068C208.273 129.248 208.561 129.506 208.777 129.842C208.993 130.178 209.101 130.616 209.101 131.156C209.101 131.756 208.921 132.278 208.561 132.722C208.213 133.166 207.715 133.514 207.067 133.766C206.419 134.006 205.645 134.126 204.745 134.126Z" fill="white"/>
<path d="M181.657 53.1539L178.81 55.6581L175.051 55.1594L177.555 58.0067L177.057 61.7657L179.904 59.2615L183.663 59.7601L181.159 56.9128L181.657 53.1539Z" fill="white"/>
<path d="M174.462 46.812L173.276 47.8554L171.709 47.6476L172.753 48.834L172.545 50.4002L173.732 49.3568L175.298 49.5646L174.254 48.3782L174.462 46.812Z" fill="white"/>
<path d="M172.462 57.5249L171.276 58.5683L169.709 58.3605L170.753 59.5469L170.545 61.1131L171.732 60.0697L173.298 60.2775L172.254 59.0911L172.462 57.5249Z" fill="white"/>
<path fill-rule="evenodd" clip-rule="evenodd" d="M70 82.4266C74.1044 81.3113 79.7257 82.605 83.7408 83.765C98.4186 88.0478 106.315 98.3535 109.036 110.845C111.669 104.599 114.524 98.4427 117.335 93.446C119.119 90.2339 122.287 86.0849 126.257 89.0293C129.559 91.4384 128.22 98.4873 127.908 102.19C126.703 117.091 123.848 146.893 143.879 150.551C147.448 151.22 150.616 150.952 154.185 150.729C155.88 150.595 155.077 150.595 156.862 150.863C153.783 153.183 149.322 153.897 145.575 153.986C123.134 154.7 119.967 127.887 119.833 111.113C119.833 110.667 119.833 110.087 119.833 109.462V109.507C116.041 117.493 112.561 125.032 109.17 133.241C106.895 138.728 100.337 136.052 101.452 131.189C105.958 110.979 101.318 94.1598 80.4395 86.1295C77.3166 84.9695 72.6322 83.9434 70 82.4266Z" fill="white"/>
</svg>
