<svg width="24" height="24" viewBox="0 0 24 24" fill="none" xmlns="http://www.w3.org/2000/svg">
<rect width="24" height="24" rx="12" fill="#2F2F2F"/>
<path fill-rule="evenodd" clip-rule="evenodd" d="M6.27958 17.7225C5.90681 17.3526 5.90681 16.7527 6.27958 16.3827L10.6955 12L6.27958 7.61726C5.90681 7.24729 5.90681 6.64745 6.27958 6.27748C6.65235 5.90751 7.25674 5.90751 7.62951 6.27748L12.7204 11.3301C13.0932 11.7001 13.0932 12.2999 12.7204 12.6699L7.62951 17.7225C7.25674 18.0925 6.65235 18.0925 6.27958 17.7225Z" fill="white"/>
<path fill-rule="evenodd" clip-rule="evenodd" d="M17.7204 6.27748C18.0932 6.64745 18.0932 7.24729 17.7204 7.61726L13.3045 12L17.7204 16.3827C18.0932 16.7527 18.0932 17.3526 17.7204 17.7225C17.3476 18.0925 16.7433 18.0925 16.3705 17.7225L11.2796 12.6699C10.9068 12.2999 10.9068 11.7001 11.2796 11.3301L16.3705 6.27748C16.7433 5.90751 17.3476 5.90751 17.7204 6.27748Z" fill="white"/>
</svg>
