<svg width="24" height="48" viewBox="0 0 24 48" fill="none" xmlns="http://www.w3.org/2000/svg">
<path d="M0 0H20C22.2091 0 24 1.79086 24 4V44C24 46.2091 22.2091 48 20 48H0V0Z" fill="black"/>
<path fill-rule="evenodd" clip-rule="evenodd" d="M15.2204 18.6452C15.5932 19.0197 15.5932 19.6268 15.2204 20.0013L10.8045 24.4373L15.2204 28.8732C15.5932 29.2477 15.5932 29.8548 15.2204 30.2293C14.8476 30.6037 14.2433 30.6037 13.8705 30.2293L8.77958 25.1153C8.40681 24.7408 8.40681 24.1337 8.77958 23.7592L13.8705 18.6452C14.2433 18.2708 14.8476 18.2708 15.2204 18.6452Z" fill="white"/>
</svg>
